<svg xmlns="http://www.w3.org/2000/svg" width="22.368" height="24" viewBox="0 0 22.368 24"><defs><style>.a{fill:#ee316b;}</style></defs><g transform="translate(-0.872 0)"><path class="a" d="M20.734,16.7c-1.45-1.24-2.921-1.991-4.353-.753l-.855.748c-.626.543-1.789,3.081-6.286-2.092S7.419,8.635,8.045,8.1l.86-.749c1.425-1.241.887-2.8-.14-4.411l-.62-.974C7.113.358,5.989-.7,4.56.543l-.772.674A7.245,7.245,0,0,0,.965,6.012C.45,9.419,2.075,13.321,5.8,17.6S13.156,24.037,16.6,24a7.264,7.264,0,0,0,5.138-2.128l.775-.675c1.425-1.238.539-2.5-.911-3.742Z"/></g></svg>