<svg xmlns="http://www.w3.org/2000/svg" width="109" height="109" viewBox="0 0 109 109">
  <g id="Group_195" data-name="Group 195" transform="translate(-642 -1590)">
    <g id="Group_129" data-name="Group 129" transform="translate(241 -314)">
      <circle id="Ellipse_5" data-name="Ellipse 5" cx="54.5" cy="54.5" r="54.5" transform="translate(401 1904)" fill="#fff"/>
      <path id="document" d="M30.558,26.227a1.843,1.843,0,0,1-1.844,1.842H13.962a1.842,1.842,0,1,1,0-3.684H28.714A1.843,1.843,0,0,1,30.558,26.227Zm-16.6-7.982h7.376a1.842,1.842,0,1,0,0-3.684H13.962a1.842,1.842,0,1,0,0,3.684ZM28.714,34.209H13.962a1.842,1.842,0,1,0,0,3.684H28.714a1.842,1.842,0,1,0,0-3.684ZM50.227,25V43.419a6.762,6.762,0,0,1-6.761,6.754H11.5a8.313,8.313,0,0,1-9.22-9.209V11.492A8.313,8.313,0,0,1,11.5,2.283h19.67a8.313,8.313,0,0,1,9.22,9.209v7.982h4.3A5.536,5.536,0,0,1,50.227,25ZM37.442,46.488a6.681,6.681,0,0,1-.738-3.07V11.492c0-3.873-1.655-5.526-5.532-5.526H11.5c-3.877,0-5.532,1.653-5.532,5.526v29.47c0,3.873,1.655,5.526,5.532,5.526ZM46.539,25A1.845,1.845,0,0,0,44.7,23.158h-4.3V43.419a3.073,3.073,0,0,0,6.147,0Z" transform="translate(429.772 1932.772)" fill="#ee316b"/>
    </g>
  </g>
</svg>
