<svg xmlns="http://www.w3.org/2000/svg" width="109" height="109" viewBox="0 0 109 109">
  <g id="Group_130" data-name="Group 130" transform="translate(-1396 -1917)">
    <circle id="Ellipse_7" data-name="Ellipse 7" cx="54.5" cy="54.5" r="54.5" transform="translate(1396 1917)" fill="#fff"/>
    <g id="voucher" transform="translate(2294.001 -2802.999)">
      <g id="Group_475" data-name="Group 475" transform="translate(-852.226 4766.267)">
        <circle id="Ellipse_24" data-name="Ellipse 24" cx="3.007" cy="3.007" r="3.007" transform="translate(0.414 0.412)" fill="#ee316b"/>
        <circle id="Ellipse_25" data-name="Ellipse 25" cx="3.007" cy="3.007" r="3.007" transform="translate(12.446 12.437)" fill="#ee316b"/>
        <path id="Path_273" data-name="Path 273" d="M0,0H22.679V4H0Z" transform="translate(0 16.036) rotate(-45)" fill="#ee316b"/>
      </g>
      <g id="coupon" transform="translate(-865.002 4750.999)">
        <path id="Path_35" data-name="Path 35" d="M45.994,30.8v16.8a2.261,2.261,0,0,1-2.388,2.4H5.391A2.261,2.261,0,0,1,3,47.595V30.8a4.8,4.8,0,0,0,0-9.6V4.4A2.261,2.261,0,0,1,5.391,2H43.606a2.261,2.261,0,0,1,2.388,2.4V21.2a4.8,4.8,0,0,0,0,9.6Z" transform="translate(-2.998 -1.998)" fill="none"/>
        <path id="Path_36" data-name="Path 36" d="M42.012,45.993V33.832a8.816,8.816,0,0,1,0-15.672V6H6.981V18.16a8.816,8.816,0,0,1,0,15.672V45.993H42.012m1.592,4H5.388A2.262,2.262,0,0,1,3,47.593V30.8a4.8,4.8,0,0,0,0-9.6V4.4A2.262,2.262,0,0,1,5.388,2H43.6a2.262,2.262,0,0,1,2.388,2.4V21.2a4.8,4.8,0,0,0,0,9.6v16.8A2.262,2.262,0,0,1,43.6,49.992Z" transform="translate(-2.996 -1.996)" fill="#ee316b"/>
      </g>
    </g>
  </g>
</svg>
