<svg xmlns="http://www.w3.org/2000/svg" width="24" height="23.969" viewBox="0 0 24 23.969"><defs><style>.a{fill:#ee316b;}</style></defs><path class="a" d="M25.458,9.186l-8.273-5.52a3.988,3.988,0,0,0-4.424,0L4.488,9.186a3.324,3.324,0,0,0-1.48,2.765V22.942A3.526,3.526,0,0,0,7,26.93H22.95a3.526,3.526,0,0,0,3.988-3.988V11.951a3.324,3.324,0,0,0-1.48-2.765Zm-3.252,5.256-6.094,4.432a2.233,2.233,0,0,1-2.634,0L7.385,14.442a1,1,0,1,1,1.174-1.611l6.094,4.432a.246.246,0,0,0,.288,0l6.093-4.431a1,1,0,0,1,1.173,1.611Z" transform="translate(-2.973 -2.996)"/></svg>