<svg xmlns="http://www.w3.org/2000/svg" width="24.5" height="147" viewBox="0 0 24.5 147">
  <g id="Group_6563" data-name="Group 6563" transform="translate(-1735.263 -128.5)">
    <g id="side_shape" transform="translate(1105.563 -436.3)">
      <g id="Group_102" data-name="Group 102" transform="translate(644.523 565.3)">
        <path id="Path_29" data-name="Path 29" d="M674.7,694.755a13.168,13.168,0,0,1,3.154-8.7c1.23-1.647,2.113-2.823,2.113-5.41s-.883-3.764-2.113-5.41a13.007,13.007,0,0,1-3.154-8.7,13.168,13.168,0,0,1,3.154-8.7c1.23-1.647,2.113-2.823,2.113-5.41s-.883-3.764-2.113-5.41a13.006,13.006,0,0,1-3.154-8.7,13.168,13.168,0,0,1,3.154-8.7c1.23-1.647,2.113-2.823,2.113-5.41s-.883-3.764-2.113-5.41a13.007,13.007,0,0,1-3.154-8.7,13.169,13.169,0,0,1,3.154-8.7c1.23-1.647,2.113-2.823,2.113-5.41s-.883-3.764-2.113-5.41a13.007,13.007,0,0,1-3.154-8.7,13.168,13.168,0,0,1,3.154-8.7c1.23-1.647,2.113-2.823,2.113-5.41a2,2,0,1,1,3.91,0,13.168,13.168,0,0,1-3.154,8.7c-1.23,1.647-2.113,2.823-2.113,5.41s.883,3.764,2.113,5.41a13.008,13.008,0,0,1,3.154,8.7,13.168,13.168,0,0,1-3.154,8.7c-1.23,1.647-2.113,2.823-2.113,5.41s.883,3.764,2.113,5.41a13.007,13.007,0,0,1,3.154,8.7,13.168,13.168,0,0,1-3.154,8.7c-1.23,1.647-2.113,2.823-2.113,5.41s.883,3.764,2.113,5.41a13.008,13.008,0,0,1,3.154,8.7,13.168,13.168,0,0,1-3.154,8.7c-1.23,1.647-2.113,2.823-2.113,5.41s.883,3.764,2.113,5.41a13.007,13.007,0,0,1,3.154,8.7,13.168,13.168,0,0,1-3.154,8.7c-1.23,1.647-2.113,2.823-2.113,5.41s.883,3.764,2.113,5.41a13.007,13.007,0,0,1,3.154,8.7,2,2,0,1,1-3.91,0c0-2.587-.883-3.764-2.113-5.41A13.168,13.168,0,0,1,674.7,694.755Z" transform="translate(-674.7 -565.3)" fill="none" stroke="#000" stroke-miterlimit="10" stroke-width="1"/>
      </g>
      <line id="Line_17" data-name="Line 17" y2="108.752" transform="translate(631.7 586.8)" fill="none" stroke="#000" stroke-linecap="round" stroke-linejoin="round" stroke-miterlimit="10" stroke-width="4" stroke-dasharray="0 12"/>
    </g>
  </g>
</svg>
