<svg xmlns="http://www.w3.org/2000/svg" width="40" height="40" viewBox="0 0 40 40">
  <g id="Group_198" data-name="Group 198" transform="translate(-940 -4091)">
    <g id="Group_196" data-name="Group 196">
      <circle id="Ellipse_19" data-name="Ellipse 19" cx="20" cy="20" r="20" transform="translate(940 4091)" fill="#ee316b" opacity="0.3"/>
      <g id="Symbol" transform="translate(939.8 4091.7)">
        <g id="Group_32" data-name="Group 32" transform="translate(11.2 10.3)">
          <path id="Path_24" data-name="Path 24" d="M14.306,10.772a4.616,4.616,0,0,0-2.634,2.63,6.581,6.581,0,0,0-.417,2.184c-.044.959-.055,1.266-.055,3.71s.011,2.751.055,3.71a6.675,6.675,0,0,0,.417,2.184,4.608,4.608,0,0,0,2.634,2.634,6.581,6.581,0,0,0,2.184.417c.959.044,1.266.055,3.71.055s2.751-.011,3.71-.055a6.676,6.676,0,0,0,2.184-.417,4.608,4.608,0,0,0,2.634-2.634,6.581,6.581,0,0,0,.417-2.184c.044-.959.055-1.266.055-3.71s-.011-2.751-.055-3.71a6.676,6.676,0,0,0-.417-2.184,4.6,4.6,0,0,0-2.63-2.63,6.581,6.581,0,0,0-2.184-.417c-.959-.044-1.266-.055-3.71-.055s-2.751.011-3.71.055A6.493,6.493,0,0,0,14.306,10.772Zm9.53,1.2a4.957,4.957,0,0,1,1.672.311,2.977,2.977,0,0,1,1.709,1.709,4.957,4.957,0,0,1,.311,1.672c.044.948.051,1.233.051,3.637s-.011,2.689-.051,3.637a4.958,4.958,0,0,1-.311,1.672,2.977,2.977,0,0,1-1.709,1.709,4.958,4.958,0,0,1-1.672.311c-.948.044-1.233.051-3.637.051s-2.689-.011-3.637-.051a4.958,4.958,0,0,1-1.672-.311,2.977,2.977,0,0,1-1.709-1.709,4.958,4.958,0,0,1-.311-1.672c-.044-.948-.051-1.233-.051-3.637s.011-2.689.051-3.637a4.958,4.958,0,0,1,.311-1.672,2.977,2.977,0,0,1,1.709-1.709,4.958,4.958,0,0,1,1.672-.311c.948-.044,1.233-.051,3.637-.051S22.889,11.928,23.837,11.972Z" transform="translate(-11.2 -10.3)" fill="#fff"/>
          <path id="Path_25" data-name="Path 25" d="M130.9,134.9a4.9,4.9,0,1,0,4.9-4.9A4.9,4.9,0,0,0,130.9,134.9Zm8.081,0a3.181,3.181,0,1,1-3.181-3.181A3.18,3.18,0,0,1,138.981,134.9Z" transform="translate(-126.8 -125.9)" fill="#fff"/>
          <circle id="Ellipse_17" data-name="Ellipse 17" cx="1.011" cy="1.011" r="1.011" transform="translate(12.839 3.144)" fill="#fff"/>
        </g>
      </g>
    </g>
  </g>
</svg>
