<?xml version="1.0" encoding="UTF-8" standalone="no"?><svg xmlns="http://www.w3.org/2000/svg" width="126" height="36" viewBox="0 0 126 36">
  <g id="Komely_Logo" transform="translate(-36 -30)">
    <g id="Group_91" data-name="Group 91" transform="translate(36 30)">
      <path id="Path_22" data-name="Path 22" d="M43.139,30V46.026L48.6,38.377h8.232l-6.775,8.96,6.92,9.907h-8.3l-5.609-8.6v8.6H36V30Z" transform="translate(-36 -30)" fill="#fff"/>
      <path id="Path_23" data-name="Path 23" d="M72.908,60.911C66.5,60.911,62.2,56.8,62.2,50.705S66.5,40.5,72.908,40.5c6.338,0,10.636,4.112,10.636,10.205S79.246,60.911,72.908,60.911Zm0-14.244c-2.185,0-3.642,1.689-3.642,4.038s1.457,4.038,3.642,4.038,3.642-1.615,3.642-4.038S75.094,46.667,72.908,46.667Z" transform="translate(-43.158 -32.851)" fill="#fff"/>
      <path id="Path_24" data-name="Path 24" d="M124.351,47.844V60.255h-7.066V49.68a2.753,2.753,0,0,0-2.55-3.011c-1.6,0-2.622,1.248-2.622,3.011v10.5H105.12V49.68c0-1.836-1.02-3.011-2.477-3.011-1.53,0-2.477,1.248-2.477,3.011v10.5H93.1V41.234h6.993v4.627c1.02-3.231,3.205-5.361,5.9-5.361,2.914,0,5.245,2.277,5.828,5.581,1.02-3.378,3.5-5.581,6.41-5.581C121.8,40.5,124.351,43.584,124.351,47.844Z" transform="translate(-51.611 -32.851)" fill="#fff"/>
      <path id="Path_25" data-name="Path 25" d="M157.816,54.476h0c-1.53,4.7-5.464,6.534-10.126,6.534-6.192,0-10.49-4.185-10.49-10.279,0-6.02,4.371-10.132,10.636-10.132s10.344,4.112,10.344,10.205a14.886,14.886,0,0,1-.073,1.909H144.339a3.231,3.231,0,0,0,3.569,2.937,3.48,3.48,0,0,0,2.914-1.175Zm-6.775-5.507a3.466,3.466,0,0,0-3.424-3.377c-1.821,0-2.914,1.322-3.278,3.377Z" transform="translate(-63.65 -32.878)" fill="#fff"/>
      <path id="Path_26" data-name="Path 26" d="M174.493,57.172H167.5V30h6.993Z" transform="translate(-71.902 -30)" fill="#fff"/>
      <path id="Path_27" data-name="Path 27" d="M193.725,41.5h7.212l-6.192,20.47c-1.238,4.225-4.152,6.993-8.96,6.993-4.079,0-5.9-2.04-5.9-4.735V61.9H181.2l.073,1.821c0,1.894.947,3.06,2.841,3.06,2.55,0,3.715-2.331,4.954-6.41h-4.516L178.5,41.573h7.285l3.861,16.318Z" transform="translate(-74.937 -32.963)" fill="#fff"/>
    </g>
  </g>
</svg>
