<?xml version="1.0" encoding="UTF-8" standalone="no"?><svg xmlns="http://www.w3.org/2000/svg" width="827" height="236.286" viewBox="0 0 827 236.286">
  <g id="Komely_Logo" transform="translate(-36 -30)" opacity="0.04">
    <g id="Group_91" data-name="Group 91" transform="translate(36 30)">
      <path id="Path_22" data-name="Path 22" d="M82.857,30V135.188l35.86-50.2h54.028l-44.466,58.81L173.7,208.82H119.194L82.378,152.4V208.82H36V30Z" transform="translate(-36 -30)" fill="#ee316b"/>
      <path id="Path_23" data-name="Path 23" d="M132.485,174.466c-42.075,0-70.285-26.986-70.285-66.983S90.41,40.5,132.485,40.5c41.6,0,69.807,26.986,69.807,66.983S174.082,174.466,132.485,174.466Zm0-93.487c-14.344,0-23.906,11.084-23.906,26.5s9.563,26.5,23.906,26.5,23.906-10.6,23.906-26.5S146.829,80.979,132.485,80.979Z" transform="translate(62.779 9.703)" fill="#ee316b"/>
      <path id="Path_24" data-name="Path 24" d="M298.217,88.7v81.461H251.839V100.752c0-10.6-6.216-19.281-16.734-19.763-10.519,0-17.213,8.194-17.213,19.763v68.929h-45.9V100.752c0-12.051-6.694-19.763-16.256-19.763-10.041,0-16.256,8.194-16.256,19.763v68.929H93.1V45.32H139V75.687C145.694,54.479,160.038,40.5,177.729,40.5c19.125,0,34.425,14.943,38.25,36.633,6.694-22.173,22.95-36.633,42.075-36.633C281.483,40.5,298.217,60.745,298.217,88.7Z" transform="translate(179.212 9.703)" fill="#ee316b"/>
      <path id="Path_25" data-name="Path 25" d="M272.51,131.678h0c-10.041,30.841-35.86,42.889-66.46,42.889-40.641,0-68.85-27.468-68.85-67.465,0-39.515,28.688-66.5,69.807-66.5S274.9,67.586,274.9,107.583c0,3.855,0,10.12-.478,12.529H184.057c1.434,13.011,11,19.276,23.428,19.276,8.128,0,15.3-2.409,19.125-7.71ZM228.044,95.536c-.956-12.047-9.563-22.167-22.472-22.167-11.953,0-19.125,8.674-21.516,22.167Z" transform="translate(345.548 10.082)" fill="#ee316b"/>
      <path id="Path_26" data-name="Path 26" d="M213.4,208.342H167.5V30h45.9Z" transform="translate(459.956 -30)" fill="#ee316b"/>
      <path id="Path_27" data-name="Path 27" d="M278.429,41.5h47.335L285.123,175.854c-8.128,27.731-27.253,45.9-58.81,45.9-26.775,0-38.728-13.388-38.728-31.078v-15.3h8.606l.478,11.953c0,12.431,6.216,20.081,18.647,20.081,16.735,0,24.385-15.3,32.513-42.075H218.185L178.5,41.978h47.813l25.341,107.1Z" transform="translate(501.237 14.532)" fill="#ee316b"/>
    </g>
  </g>
</svg>
