<svg xmlns="http://www.w3.org/2000/svg" width="210" height="60" viewBox="0 0 210 60">
  <g id="Komely_Logo" transform="translate(-36 -30)">
    <g id="Group_91" data-name="Group 91" transform="translate(36 30)">
      <path id="Path_22" data-name="Path 22" d="M48.056,30V57.066l9.227-12.918h13.9L59.744,59.28,71.431,76.012H57.406L47.933,61.495V76.012H36V30Z" transform="translate(-36 -30)" fill="#fff"/>
      <path id="Path_23" data-name="Path 23" d="M80.285,74.173C69.459,74.173,62.2,67.39,62.2,57.336S69.459,40.5,80.285,40.5c10.7,0,17.962,6.783,17.962,16.836S90.988,74.173,80.285,74.173Zm0-23.5c-3.691,0-6.151,2.786-6.151,6.662S76.594,64,80.285,64s6.151-2.665,6.151-6.662S83.976,50.674,80.285,50.674Z" transform="translate(-30.55 -27.582)" fill="#fff"/>
      <path id="Path_24" data-name="Path 24" d="M145.878,52.9V73.863H133.944V56c0-2.729-1.6-4.961-4.306-5.085-2.707,0-4.429,2.108-4.429,5.085V73.739H113.4V56c0-3.1-1.722-5.085-4.183-5.085-2.584,0-4.183,2.108-4.183,5.085V73.739H93.1v-32h11.81v7.814c1.722-5.457,5.413-9.054,9.965-9.054,4.921,0,8.858,3.845,9.842,9.426,1.722-5.705,5.905-9.426,10.826-9.426C141.572,40.5,145.878,45.709,145.878,52.9Z" transform="translate(-24.255 -27.958)" fill="#fff"/>
      <path id="Path_25" data-name="Path 25" d="M172.016,63.493h0c-2.584,7.752-9.227,10.78-17.1,10.78-10.457,0-17.716-6.9-17.716-16.957,0-9.932,7.382-16.715,17.962-16.715s17.47,6.783,17.47,16.836a23.993,23.993,0,0,1-.123,3.149H149.257c.369,3.27,2.83,4.845,6.028,4.845,2.091,0,3.937-.606,4.921-1.938Zm-11.441-9.084a5.79,5.79,0,0,0-5.782-5.572c-3.076,0-4.921,2.18-5.536,5.572Z" transform="translate(-14.942 -27.559)" fill="#fff"/>
      <path id="Path_26" data-name="Path 26" d="M179.31,75.888H167.5V30h11.81Z" transform="translate(-8.295 -30)" fill="#fff"/>
      <path id="Path_27" data-name="Path 27" d="M204.212,41.5h12.179L205.935,76.07c-2.091,7.135-7.012,11.81-15.132,11.81-6.889,0-9.965-3.445-9.965-8V75.947h2.214l.123,3.076c0,3.2,1.6,5.167,4.8,5.167,4.306,0,6.274-3.937,8.366-10.826h-7.628L178.5,41.623h12.3l6.52,27.558Z" transform="translate(-6.392 -27.881)" fill="#fff"/>
    </g>
  </g>
</svg>
