<svg xmlns="http://www.w3.org/2000/svg" xmlns:xlink="http://www.w3.org/1999/xlink" width="1525.591" height="400" viewBox="0 0 1602.591 477">
  <g id="Group_195" data-name="Group 195" transform="translate(-157.172 -2285)">
    <g id="Group_119" data-name="Group 119" transform="translate(-1044.577 1493.596)">
      <g id="Group_104" data-name="Group 104" transform="translate(1275.268 870.094)">
        <g id="Group_103" data-name="Group 103" transform="translate(0 0)">
          <path id="Path_30" data-name="Path 30" d="M1392.556,977.073a10.31,10.31,0,1,1-10.309-10.31A10.31,10.31,0,0,1,1392.556,977.073Z" transform="translate(-1371.937 -966.763)" fill="none" stroke="#ee316b" stroke-linecap="round" stroke-linejoin="round" stroke-width="4" stroke-dasharray="0 17"/>
        </g>
      </g>
      <g id="Group_105" data-name="Group 105" transform="translate(1250.555 845.381)">
        <circle id="Ellipse_1" data-name="Ellipse 1" cx="26.805" cy="26.805" r="26.805" transform="matrix(0.924, -0.383, 0.383, 0.924, 0, 20.516)" fill="none" stroke="#ee316b" stroke-linecap="round" stroke-linejoin="round" stroke-width="4" stroke-dasharray="0 17"/>
      </g>
      <g id="Group_106" data-name="Group 106" transform="translate(1227.905 822.732)">
        <circle id="Ellipse_2" data-name="Ellipse 2" cx="40.78" cy="40.78" r="40.78" transform="translate(0 57.672) rotate(-45)" fill="none" stroke="#ee316b" stroke-linecap="round" stroke-linejoin="round" stroke-width="4" stroke-dasharray="0 16"/>
      </g>
      <g id="Group_107" data-name="Group 107" transform="translate(1204.578 799.404)">
        <circle id="Ellipse_3" data-name="Ellipse 3" cx="57.276" cy="57.276" r="57.276" transform="translate(0 81) rotate(-45)" fill="none" stroke="#ee316b" stroke-linecap="round" stroke-linejoin="round" stroke-width="4" stroke-dasharray="0 15"/>
      </g>
      <g id="Group_109" data-name="Group 109" transform="translate(1212.85 807.677)">
        <g id="Group_108" data-name="Group 108" transform="translate(0 0)">
          <circle id="Ellipse_4" data-name="Ellipse 4" cx="72.727" cy="72.727" r="72.727" fill="none" stroke="#ee316b" stroke-linecap="round" stroke-linejoin="round" stroke-width="4" stroke-dasharray="0 17"/>
        </g>
      </g>
    </g>
    <path id="Path_29" data-name="Path 29" d="M674.7,694.755a13.168,13.168,0,0,1,3.154-8.7c1.23-1.647,2.113-2.823,2.113-5.41s-.883-3.764-2.113-5.41a13.007,13.007,0,0,1-3.154-8.7,13.168,13.168,0,0,1,3.154-8.7c1.23-1.647,2.113-2.823,2.113-5.41s-.883-3.764-2.113-5.41a13.006,13.006,0,0,1-3.154-8.7,13.168,13.168,0,0,1,3.154-8.7c1.23-1.647,2.113-2.823,2.113-5.41s-.883-3.764-2.113-5.41a13.007,13.007,0,0,1-3.154-8.7,13.169,13.169,0,0,1,3.154-8.7c1.23-1.647,2.113-2.823,2.113-5.41s-.883-3.764-2.113-5.41a13.007,13.007,0,0,1-3.154-8.7,13.168,13.168,0,0,1,3.154-8.7c1.23-1.647,2.113-2.823,2.113-5.41a2,2,0,1,1,3.91,0,13.168,13.168,0,0,1-3.154,8.7c-1.23,1.647-2.113,2.823-2.113,5.41s.883,3.764,2.113,5.41a13.008,13.008,0,0,1,3.154,8.7,13.168,13.168,0,0,1-3.154,8.7c-1.23,1.647-2.113,2.823-2.113,5.41s.883,3.764,2.113,5.41a13.007,13.007,0,0,1,3.154,8.7,13.168,13.168,0,0,1-3.154,8.7c-1.23,1.647-2.113,2.823-2.113,5.41s.883,3.764,2.113,5.41a13.008,13.008,0,0,1,3.154,8.7,13.168,13.168,0,0,1-3.154,8.7c-1.23,1.647-2.113,2.823-2.113,5.41s.883,3.764,2.113,5.41a13.007,13.007,0,0,1,3.154,8.7,13.168,13.168,0,0,1-3.154,8.7c-1.23,1.647-2.113,2.823-2.113,5.41s.883,3.764,2.113,5.41a13.007,13.007,0,0,1,3.154,8.7,2,2,0,1,1-3.91,0c0-2.587-.883-3.764-2.113-5.41A13.168,13.168,0,0,1,674.7,694.755Z" transform="translate(1075.387 1783.7)" fill="none" stroke="#000" stroke-miterlimit="10" stroke-width="1"/>
    <line id="Line_17" data-name="Line 17" y2="108.752" transform="translate(1737.264 2370.5)" fill="none" stroke="#000" stroke-linecap="round" stroke-linejoin="round" stroke-miterlimit="10" stroke-width="4" stroke-dasharray="0 12"/>
  </g>
</svg>
