<svg xmlns="http://www.w3.org/2000/svg" width="109" height="109" viewBox="0 0 109 109">
  <g id="Group_202" data-name="Group 202" transform="translate(-1564 -2285)">
    <circle id="Ellipse_9" data-name="Ellipse 9" cx="54.5" cy="54.5" r="54.5" transform="translate(1564 2285)" fill="#e9cf48"/>
    <path id="Path_43" data-name="Path 43" d="M75.856,138.945l-10.705,10.9a.32.32,0,0,1-.459,0l-4.462-4.541a2.4,2.4,0,0,0-3.44,0l-5.471,5.559a1.707,1.707,0,0,0-.114,2.284,1.6,1.6,0,0,0,2.373.086l4.694-4.769a.32.32,0,0,1,.459,0l4.462,4.539a2.4,2.4,0,0,0,3.44,0l11.516-11.72a.32.32,0,0,1,.459,0l1.335,1.358a.8.8,0,0,0,.883.178.826.826,0,0,0,.5-.762v-5.526a.818.818,0,0,0-.811-.825H75.093a.811.811,0,0,0-.749.51.836.836,0,0,0,.177.9l1.335,1.358a.334.334,0,0,1,0,.467Z" transform="translate(1552.783 2201.61)" fill="#842d72"/>
    <path id="Path_44" data-name="Path 44" d="M54.813,45.411l-2.738-34.1A2.383,2.383,0,0,0,49.712,9.1H41.673a.215.215,0,0,1-.213-.216A8.787,8.787,0,0,0,32.949.006a8.6,8.6,0,0,0-6.192,2.519,8.814,8.814,0,0,0-2.58,6.23v.029a.318.318,0,0,1-.316.32H15.93a2.383,2.383,0,0,0-2.363,2.206l-2.738,34.1a2.418,2.418,0,0,0,.623,1.824A2.358,2.358,0,0,0,13.2,48H52.45a2.358,2.358,0,0,0,1.743-.773A2.418,2.418,0,0,0,54.813,45.411ZM27.338,8.755A5.525,5.525,0,0,1,32.726,3.2,5.609,5.609,0,0,1,38.3,8.863a.239.239,0,0,1-.237.238H27.654a.318.318,0,0,1-.316-.32ZM51.249,44.8H14.393a.314.314,0,0,1-.233-.1.322.322,0,0,1-.083-.243L16.635,12.6a.318.318,0,0,1,.316-.294H23.86a.318.318,0,0,1,.316.32v1.621A1.628,1.628,0,0,0,25.653,15.9a1.569,1.569,0,0,0,1.186-.43,1.609,1.609,0,0,0,.5-1.17V12.623a.318.318,0,0,1,.316-.32H38.067a.239.239,0,0,1,.237.24v1.7A1.628,1.628,0,0,0,39.776,15.9a1.569,1.569,0,0,0,1.187-.429,1.609,1.609,0,0,0,.5-1.171V12.521a.216.216,0,0,1,.21-.218h7.014A.318.318,0,0,1,49,12.6L51.56,44.459a.322.322,0,0,1-.082.241.314.314,0,0,1-.23.1Z" transform="translate(1586.179 2315.995)" fill="#842d72"/>
  </g>
</svg>
