<svg xmlns="http://www.w3.org/2000/svg" width="109" height="109" viewBox="0 0 109 109">
  <g id="Group_201" data-name="Group 201" transform="translate(-642 -2285)">
    <circle id="Ellipse_5" data-name="Ellipse 5" cx="54.5" cy="54.5" r="54.5" transform="translate(642 2285)" fill="#e9cf48"/>
    <g id="accountability_solution" transform="translate(673 2314.433)">
      <g id="Group_136" data-name="Group 136" transform="translate(8.943 46.234)">
        <g id="Group_135" data-name="Group 135">
          <path id="Path_42" data-name="Path 42" d="M-.618-.015,29.337,0V3.334L-.618,3.319Z" fill="#842d72"/>
        </g>
      </g>
      <g id="Group_138" data-name="Group 138" transform="translate(16.983 17.507)">
        <g id="Group_137" data-name="Group 137">
          <path id="Path_39" data-name="Path 39" d="M188.887,169.726H178.608a1.667,1.667,0,0,0,0,3.334h10.279a1.667,1.667,0,0,0,0-3.334Z" transform="translate(-176.941 -169.726)" fill="#842d72"/>
        </g>
      </g>
      <g id="Group_140" data-name="Group 140" transform="translate(17.41 25.834)">
        <g id="Group_139" data-name="Group 139">
          <path id="Path_40" data-name="Path 40" d="M196.666,257.569H178.608a1.667,1.667,0,0,0,0,3.334h18.058a1.667,1.667,0,0,0,0-3.334Z" transform="translate(-176.941 -257.569)" fill="#842d72"/>
        </g>
      </g>
      <g id="Group_142" data-name="Group 142" transform="translate(0 1.568)">
        <g id="Group_141" data-name="Group 141" transform="translate(0 0)">
          <path id="Path_41" data-name="Path 41" d="M46.96,1.784a1.758,1.758,0,0,0-1.894.289l-4.942,4.4L35.177,2.02a1.756,1.756,0,0,0-2.353,0L27.882,6.466,22.941,2.02a1.755,1.755,0,0,0-2.352,0L15.641,6.471,10.7,2.073A1.764,1.764,0,0,0,7.765,3.4V35.008h-6A1.77,1.77,0,0,0,0,36.783V41.1a8.447,8.447,0,0,0,8.412,8.464V46.016A4.9,4.9,0,0,1,3.529,41.1V38.559H31.177V41.1A8.412,8.412,0,1,0,48,41.1V3.4A1.776,1.776,0,0,0,46.96,1.784ZM44.471,41.1a4.882,4.882,0,1,1-9.765,0V36.783a1.77,1.77,0,0,0-1.765-1.776H11.294V7.344l3.184,2.834a1.756,1.756,0,0,0,2.345-.007l4.941-4.446,4.941,4.445a1.756,1.756,0,0,0,2.353,0L34,5.725l4.941,4.446a1.757,1.757,0,0,0,2.345.007l3.184-2.834Z" transform="translate(0 -1.567)" fill="#842d72"/>
        </g>
      </g>
    </g>
  </g>
</svg>
