<svg xmlns="http://www.w3.org/2000/svg" width="109" height="109" viewBox="0 0 109 109">
  <g id="Group_197" data-name="Group 197" transform="translate(-949 -2285)">
    <g id="Group_147" data-name="Group 147" transform="translate(205 -1236)">
      <circle id="Ellipse_6" data-name="Ellipse 6" cx="54.5" cy="54.5" r="54.5" transform="translate(744 3521)" fill="#e9cf48"/>
      <g id="handling_customers" transform="translate(769 3524.993)">
        <g id="Group_124" data-name="Group 124" transform="translate(0 45.584)">
          <g id="Group_123" data-name="Group 123">
            <path id="Path_33" data-name="Path 33" d="M58.309,216.743a5.63,5.63,0,0,0-8.179,0l-9.98,10.388a5.8,5.8,0,0,0-5.364-3.773H29.2a12.739,12.739,0,0,1-6.3-1.68,11.984,11.984,0,0,0-7.773-1.471,12.226,12.226,0,0,0-7.066,3.677L0,232.277l2.488,2.59,8.063-8.393a8.755,8.755,0,0,1,10.659-1.585A16.157,16.157,0,0,0,29.2,227.02h5.582a2.36,2.36,0,0,1,0,4.716H25.4V235.4h9.39a5.643,5.643,0,0,0,3.976-1.654l.006.006,13.85-14.416a2.2,2.2,0,0,1,3.2,0,2.43,2.43,0,0,1,0,3.338L41.639,237.507a10.181,10.181,0,0,1-7.312,3.165H24.948a16.437,16.437,0,0,0-11.931,5.144l2.488,2.59a13.01,13.01,0,0,1,9.444-4.071h9.378a13.655,13.655,0,0,0,9.807-4.244l14.175-14.833A6.2,6.2,0,0,0,58.309,216.743Z" transform="translate(0 -214.983)" fill="#842d72"/>
          </g>
        </g>
        <g id="Group_126" data-name="Group 126" transform="translate(21.815 23.007)">
          <g id="Group_125" data-name="Group 125" transform="translate(0 0)">
            <path id="Path_34" data-name="Path 34" d="M208,35.794a6.672,6.672,0,0,0,1.071-3.631V29.721a6.714,6.714,0,1,0-13.428,0v2.441a6.673,6.673,0,0,0,1.071,3.631,9.17,9.17,0,0,0-5.954,8.577v3.052h23.194V44.37A9.17,9.17,0,0,0,208,35.794Zm-8.7-6.072a3.052,3.052,0,0,1,6.1,0v2.441a3.052,3.052,0,0,1-6.1,0ZM194.456,43.76a5.5,5.5,0,0,1,5.46-4.883H204.8a5.5,5.5,0,0,1,5.46,4.883Z" transform="translate(-190.76 -23.007)" fill="#842d72"/>
          </g>
        </g>
      </g>
    </g>
  </g>
</svg>
