<svg xmlns="http://www.w3.org/2000/svg" xmlns:xlink="http://www.w3.org/1999/xlink" width="1920" height="700" viewBox="0 0 1920 700">
  <g id="Group_199" data-name="Group 199" transform="translate(0 -802)">
    <g id="Group_198" data-name="Group 198">
      <rect id="Rectangle_21" data-name="Rectangle 21" width="1920" height="700" transform="translate(0 802)" fill="#fff"/>
      <g id="Komely_Logo" transform="translate(452 977)" opacity="0.05">
        <g id="Group_91" data-name="Group 91" transform="translate(36 30)">
          <path id="Path_22" data-name="Path 22" d="M89.542,30V150.2L130.518,92.83h61.738l-50.811,67.2,51.9,74.3H131.065L89,169.866v64.469H36V30Z" transform="translate(-36 -30)" fill="#ee316b"/>
          <path id="Path_23" data-name="Path 23" d="M142.513,193.581c-48.079,0-80.313-30.837-80.313-76.541S94.435,40.5,142.513,40.5c47.532,0,79.767,30.837,79.767,76.541S190.046,193.581,142.513,193.581Zm0-106.827c-16.39,0-27.318,12.665-27.318,30.286s10.927,30.286,27.318,30.286,27.317-12.114,27.317-30.286S158.9,86.755,142.513,86.755Z" transform="translate(80.612 16.867)" fill="#ee316b"/>
          <path id="Path_24" data-name="Path 24" d="M327.484,95.58v93.085h-53V109.35c0-12.118-7.1-22.032-19.122-22.583-12.02,0-19.669,9.364-19.669,22.583v78.764h-52.45V109.35c0-13.77-7.649-22.583-18.576-22.583-11.473,0-18.576,9.364-18.576,22.583v78.764h-53V46.008h52.45v34.7C153.2,56.473,169.589,40.5,189.8,40.5c21.854,0,39.337,17.075,43.708,41.861C241.161,57.024,259.737,40.5,281.591,40.5,308.362,40.5,327.484,63.633,327.484,95.58Z" transform="translate(218.067 16.867)" fill="#ee316b"/>
          <path id="Path_25" data-name="Path 25" d="M291.817,144.673h0c-11.473,35.242-40.976,49.008-75.943,49.008-46.44,0-78.674-31.387-78.674-77.091,0-45.154,32.781-75.99,79.767-75.99s77.582,30.836,77.582,76.541c0,4.405,0,11.564-.546,14.317H190.742c1.639,14.868,12.566,22.026,26.771,22.026,9.288,0,17.483-2.753,21.854-8.81Zm-50.811-41.3c-1.093-13.766-10.927-25.33-25.678-25.33-13.659,0-21.854,9.912-24.586,25.33Z" transform="translate(414.428 17.313)" fill="#ee316b"/>
          <path id="Path_26" data-name="Path 26" d="M219.95,233.788H167.5V30h52.45Z" transform="translate(549.485 -30)" fill="#ee316b"/>
          <path id="Path_27" data-name="Path 27" d="M292.687,41.5h54.088l-46.44,153.524c-9.288,31.688-31.142,52.449-67.2,52.449-30.6,0-44.254-15.3-44.254-35.513V194.478h9.834l.546,13.659c0,14.205,7.1,22.947,21.307,22.947,19.122,0,27.864-17.483,37.152-48.079H223.847L178.5,42.046h54.635l28.957,122.382Z" transform="translate(598.224 22.526)" fill="#ee316b"/>
        </g>
      </g>
      <g id="Group_120" data-name="Group 120" transform="translate(3.267 -15.572)">
        <g id="Group_119" data-name="Group 119" transform="translate(310.155 476.169)">
          <g id="Group_104" data-name="Group 104" transform="translate(1275.268 870.094)">
            <g id="Group_103" data-name="Group 103" transform="translate(0 0)">
              <path id="Path_30" data-name="Path 30" d="M1392.556,977.073a10.31,10.31,0,1,1-10.309-10.31A10.31,10.31,0,0,1,1392.556,977.073Z" transform="translate(-1371.937 -966.763)" fill="none" stroke="#ee316b" stroke-linecap="round" stroke-linejoin="round" stroke-width="4" stroke-dasharray="0 17"/>
            </g>
          </g>
          <g id="Group_105" data-name="Group 105" transform="translate(1250.555 845.381)">
            <circle id="Ellipse_1" data-name="Ellipse 1" cx="26.805" cy="26.805" r="26.805" transform="matrix(0.924, -0.383, 0.383, 0.924, 0, 20.516)" fill="none" stroke="#ee316b" stroke-linecap="round" stroke-linejoin="round" stroke-width="4" stroke-dasharray="0 17"/>
          </g>
          <g id="Group_106" data-name="Group 106" transform="translate(1227.905 822.732)">
            <circle id="Ellipse_2" data-name="Ellipse 2" cx="40.78" cy="40.78" r="40.78" transform="translate(0 57.672) rotate(-45)" fill="none" stroke="#ee316b" stroke-linecap="round" stroke-linejoin="round" stroke-width="4" stroke-dasharray="0 16"/>
          </g>
          <g id="Group_107" data-name="Group 107" transform="translate(1204.578 799.404)">
            <circle id="Ellipse_3" data-name="Ellipse 3" cx="57.276" cy="57.276" r="57.276" transform="translate(0 81) rotate(-45)" fill="none" stroke="#ee316b" stroke-linecap="round" stroke-linejoin="round" stroke-width="4" stroke-dasharray="0 15"/>
          </g>
          <g id="Group_109" data-name="Group 109" transform="translate(1212.85 807.677)">
            <g id="Group_108" data-name="Group 108" transform="translate(0 0)">
              <circle id="Ellipse_4" data-name="Ellipse 4" cx="72.727" cy="72.727" r="72.727" fill="none" stroke="#ee316b" stroke-linecap="round" stroke-linejoin="round" stroke-width="4" stroke-dasharray="0 17"/>
            </g>
          </g>
        </g>
      </g>
    </g>
  </g>
</svg>
