<svg xmlns="http://www.w3.org/2000/svg" width="40" height="40" viewBox="0 0 40 40">
  <g id="Group_197" data-name="Group 197" transform="translate(-990 -4091)">
    <circle id="Ellipse_18" data-name="Ellipse 18" cx="20" cy="20" r="20" transform="translate(990 4091)" fill="#ee316b" opacity="0.3"/>
    <g id="Group_46" data-name="Group 46" transform="translate(1001.834 4102)">
      <g id="Group_18" data-name="Group 18" transform="translate(0 0)">
        <path id="Path_12" data-name="Path 12" d="M816.969,456.607c.242-.272.442-.548.691-.783a3.789,3.789,0,0,1,2.725-1.076,6.307,6.307,0,0,1,1.714.209,3.35,3.35,0,0,1,2.378,2.5,10.484,10.484,0,0,1,.317,2.866c0,2.037-.006,4.074,0,6.111,0,.19-.053.241-.241.239q-1.574-.013-3.148,0c-.185,0-.225-.056-.224-.23q.009-2.908,0-5.815a5.234,5.234,0,0,0-.169-1.443,1.624,1.624,0,0,0-1.785-1.265,1.951,1.951,0,0,0-2.05,1.948,7.252,7.252,0,0,0-.055.909c0,1.885,0,3.77,0,5.655,0,.188-.046.244-.238.242q-1.586-.014-3.171,0c-.17,0-.219-.045-.218-.216q.007-5.6,0-11.2c0-.185.06-.227.235-.226q1.506.011,3.012,0c.185,0,.232.058.228.233C816.963,455.714,816.969,456.161,816.969,456.607Z" transform="translate(-807.318 -449.247)" fill="#fff" stroke="rgba(0,0,0,0)" stroke-width="1"/>
        <path id="Path_13" data-name="Path 13" d="M790.1,461.9c0,1.846,0,3.693,0,5.539,0,.205-.05.267-.263.265-1.049-.011-2.1-.009-3.147,0-.168,0-.219-.041-.219-.215q.008-5.608,0-11.215c0-.155.037-.21.2-.209,1.064.007,2.129.009,3.193,0,.2,0,.232.077.232.253Q790.1,459.1,790.1,461.9Z" transform="translate(-786.202 -450.272)" fill="#fff" stroke="rgba(0,0,0,0)" stroke-width="1"/>
        <path id="Path_14" data-name="Path 14" d="M789.4,431.65a2.1,2.1,0,1,1-2.092-2.085A2.1,2.1,0,0,1,789.4,431.65Z" transform="translate(-785.21 -429.565)" fill="#fff" stroke="rgba(0,0,0,0)" stroke-width="1"/>
      </g>
    </g>
  </g>
</svg>
