<?xml version="1.0" encoding="UTF-8" standalone="no"?><svg id="razorpay-icon" xmlns="http://www.w3.org/2000/svg" width="166.743" height="36" viewBox="0 0 166.743 36">
  <path id="Path_88" data-name="Path 88" d="M15.367,9.03,10.9,26.114H0l2.211-8.4Z" transform="translate(0 3.093)" fill="#072654"/>
  <path id="Path_89" data-name="Path 89" d="M32.144,5.08c2.519.014,4.293.577,5.3,1.717s1.246,2.76.691,4.889a8.39,8.39,0,0,1-2.153,3.845,8.759,8.759,0,0,1-3.887,2.307A2.649,2.649,0,0,1,34.122,20.3l.041.3.813,6.99H29.964l-.84-7.526a1.665,1.665,0,0,0-.2-.714,1.572,1.572,0,0,0-.5-.536,3.1,3.1,0,0,0-1.354-.343H23.693l-2.357,9.1H16.65L22.474,5.08Zm128.383,5.891-5.959,8.707-7.029,10.327-.054.055-1.571,2.307-.054.082-.068.11-1.354,1.978h-4.659l5.445-7.787-2.465-15.23h4.835l1.219,9.929,5.905-8.5.081-.124.095-.137.095-.124.731-1.579h4.808ZM119.245,12.18a5.07,5.07,0,0,1,1.679,3.008,9.968,9.968,0,0,1-.284,4.422,13.189,13.189,0,0,1-1.977,4.381,9.732,9.732,0,0,1-3.183,2.925,7.937,7.937,0,0,1-3.86,1,4.916,4.916,0,0,1-2.736-.7,3.37,3.37,0,0,1-1.4-1.675l-.081-.275-2.4,9.27h-4.646l4.754-18.4.027-.082.014-.082,1.165-4.463h4.537l-.772,2.582-.014.11a6.848,6.848,0,0,1,2.587-2.252,7.033,7.033,0,0,1,3.318-.824,4.864,4.864,0,0,1,3.264,1.057Zm-5.607,2.554a4.033,4.033,0,0,0-1.6.3,4.283,4.283,0,0,0-1.354.906,7.307,7.307,0,0,0-1.842,3.488,4.959,4.959,0,0,0,.027,3.474,2.37,2.37,0,0,0,2.33,1.208,4.068,4.068,0,0,0,2.953-1.181,7.252,7.252,0,0,0,1.8-3.419,5.207,5.207,0,0,0-.041-3.529,2.288,2.288,0,0,0-2.275-1.25ZM134.5,11.823a3.509,3.509,0,0,1,1.381,1.689l.095.261.6-2.28h4.551l-4.172,16.068h-4.564l.609-2.376a7.212,7.212,0,0,1-2.533,1.95,7.109,7.109,0,0,1-2.993.673,5.208,5.208,0,0,1-3.359-1.016,4.7,4.7,0,0,1-1.679-2.9,9.658,9.658,0,0,1,.257-4.353,13.545,13.545,0,0,1,2.018-4.408,10.233,10.233,0,0,1,3.223-2.994,7.568,7.568,0,0,1,3.833-1.057,4.784,4.784,0,0,1,2.736.742Zm-2.357,2.953a4.032,4.032,0,0,0-1.612.33,4.271,4.271,0,0,0-1.368.934,7.471,7.471,0,0,0-1.842,3.5,4.8,4.8,0,0,0,.054,3.419,2.4,2.4,0,0,0,2.37,1.195,4.033,4.033,0,0,0,1.6-.3,4.136,4.136,0,0,0,1.354-.906A7.442,7.442,0,0,0,134.4,19.9l.108-.426A4.793,4.793,0,0,0,134.469,16a2.382,2.382,0,0,0-2.33-1.222Zm-28.158-3.447.3.124-1.165,4.381a4.486,4.486,0,0,0-2.126-.536,4.66,4.66,0,0,0-3.074,1.03,5.324,5.324,0,0,0-1.6,2.5l-.095.371-2.167,8.391H89.422l4.2-16.068h4.564l-.6,2.362a6.809,6.809,0,0,1,2.126-1.923,5.955,5.955,0,0,1,3.007-.81,3.053,3.053,0,0,1,1.26.179ZM86.875,12.1a4.753,4.753,0,0,1,2.059,2.911,8.592,8.592,0,0,1-.149,4.422,11.752,11.752,0,0,1-2.14,4.422,9.965,9.965,0,0,1-3.576,2.911,10.375,10.375,0,0,1-4.537,1,7.444,7.444,0,0,1-4.063-1,4.793,4.793,0,0,1-2.086-2.911,8.894,8.894,0,0,1,.149-4.422,11.954,11.954,0,0,1,2.14-4.422,10.084,10.084,0,0,1,3.6-2.911,10.416,10.416,0,0,1,4.591-1,7.247,7.247,0,0,1,4.009,1Zm-4.957,2.623A4.182,4.182,0,0,0,78.966,15.9a7.221,7.221,0,0,0-1.842,3.529q-1.219,4.717,2.357,4.71a4.018,4.018,0,0,0,2.912-1.167,7.356,7.356,0,0,0,1.815-3.543,5.159,5.159,0,0,0,.014-3.529,2.29,2.29,0,0,0-2.3-1.181Zm-9.413-3.214-.813,3.186-10.226,9.16h8.208L68.7,27.6H55.115l.853-3.31L66.031,15.27H58.379l.975-3.749H72.505Zm-22.93.316a3.509,3.509,0,0,1,1.381,1.689l.095.261.6-2.28h4.564L52.054,27.561H47.49l.609-2.376a7.368,7.368,0,0,1-2.506,1.936,7.187,7.187,0,0,1-3.074.687A5.151,5.151,0,0,1,39.2,26.792a4.7,4.7,0,0,1-1.679-2.9,9.658,9.658,0,0,1,.257-4.353A13.269,13.269,0,0,1,39.8,15.132a10.333,10.333,0,0,1,3.21-2.994A7.554,7.554,0,0,1,46.839,11.1a4.881,4.881,0,0,1,2.736.728Zm-2.343,2.953a4.08,4.08,0,0,0-1.612.33,4.271,4.271,0,0,0-1.368.934,7.352,7.352,0,0,0-1.842,3.5,4.872,4.872,0,0,0,.054,3.419,2.4,2.4,0,0,0,2.37,1.195,4.033,4.033,0,0,0,1.6-.3,4.136,4.136,0,0,0,1.354-.906A7.208,7.208,0,0,0,49.494,19.9l.108-.426A5.108,5.108,0,0,0,49.562,16a2.4,2.4,0,0,0-2.33-1.222ZM30.465,8.829H26.117l-1.53,5.878h4.348a5.865,5.865,0,0,0,3.183-.714,3.586,3.586,0,0,0,1.53-2.238,2.111,2.111,0,0,0-.366-2.225,4.33,4.33,0,0,0-2.817-.7Z" transform="translate(6.215 1.463)" fill="#072654"/>
  <path id="Path_90" data-name="Path 90" d="M22.708,0,14.962,29.485H9.648L14.88,9.517,6.86,14.8l1.428-5.26Z" transform="translate(2.561)" fill="#3395ff"/>
</svg>
